<?xml version="1.0" encoding="iso-8859-1"?>
<!-- Generator: Adobe Illustrator 16.0.0, SVG Export Plug-In . SVG Version: 6.00 Build 0)  -->
<!DOCTYPE svg PUBLIC "-//W3C//DTD SVG 1.1//EN" "http://www.w3.org/Graphics/SVG/1.1/DTD/svg11.dtd">
<svg version="1.1" id="Capa_1" xmlns="http://www.w3.org/2000/svg" xmlns:xlink="http://www.w3.org/1999/xlink" x="0px" y="0px"
	 width="612.056px" height="612.057px" viewBox="0 0 612.056 612.057" style="enable-background:new 0 0 612.056 612.057;"
	 xml:space="preserve">
<g>
	<g id="Search">
		<g>
			<path d="M595.2,513.908L493.775,412.482c26.707-41.727,42.685-91.041,42.685-144.263C536.459,120.085,416.375,0,268.24,0
				C120.106,0,0.021,120.085,0.021,268.219c0,148.134,120.085,268.22,268.219,268.22c53.222,0,102.537-15.979,144.225-42.686
				l101.426,101.463c22.454,22.453,58.854,22.453,81.271,0C617.654,572.725,617.654,536.361,595.2,513.908z M268.24,459.805
				c-105.793,0-191.585-85.793-191.585-191.585c0-105.793,85.792-191.585,191.585-191.585s191.585,85.792,191.585,191.585
				C459.826,374.012,374.034,459.805,268.24,459.805z"/>
		</g>
	</g>
</g>
<g>
</g>
<g>
</g>
<g>
</g>
<g>
</g>
<g>
</g>
<g>
</g>
<g>
</g>
<g>
</g>
<g>
</g>
<g>
</g>
<g>
</g>
<g>
</g>
<g>
</g>
<g>
</g>
<g>
</g>
</svg>
